<svg width="24" height="24" viewBox="0 0 24 24" fill="none" xmlns="http://www.w3.org/2000/svg">
<g clip-path="url(#clip0_bulb)">
<path d="M12 2C9.87827 2 7.84344 2.84285 6.34315 4.34315C4.84285 5.84344 4 7.87827 4 10C4 11.849 4.655 13.544 5.738 14.857C6.393 15.673 6.916 16.604 7.284 17.607C7.42 17.989 7.776 18.25 8.184 18.25H9V19C9 19.7956 9.31607 20.5587 9.87868 21.1213C10.4413 21.6839 11.2044 22 12 22C12.7956 22 13.5587 21.6839 14.1213 21.1213C14.6839 20.5587 15 19.7956 15 19V18.25H15.816C16.224 18.25 16.58 17.989 16.716 17.607C17.084 16.604 17.607 15.673 18.262 14.857C19.345 13.544 20 11.849 20 10C20 7.87827 19.1571 5.84344 17.6569 4.34315C16.1566 2.84285 14.1217 2 12 2ZM13 19C13 19.2652 12.8946 19.5196 12.7071 19.7071C12.5196 19.8946 12.2652 20 12 20C11.7348 20 11.4804 19.8946 11.2929 19.7071C11.1054 19.5196 11 19.2652 11 19V18.25H13V19ZM16.708 13.857C15.916 14.857 15.284 15.982 14.842 17.25H9.158C8.716 15.982 8.084 14.857 7.292 13.857C6.476 12.857 6 11.482 6 10C6 8.4087 6.63214 6.88258 7.75736 5.75736C8.88258 4.63214 10.4087 4 12 4C13.5913 4 15.1174 4.63214 16.2426 5.75736C17.3679 6.88258 18 8.4087 18 10C18 11.482 17.524 12.857 16.708 13.857Z" fill="white"/>
<path d="M12 6C11.7348 6 11.4804 6.10536 11.2929 6.29289C11.1054 6.48043 11 6.73478 11 7V10C11 10.2652 11.1054 10.5196 11.2929 10.7071C11.4804 10.8946 11.7348 11 12 11C12.2652 11 12.5196 10.8946 12.7071 10.7071C12.8946 10.5196 13 10.2652 13 10V7C13 6.73478 12.8946 6.48043 12.7071 6.29289C12.5196 6.10536 12.2652 6 12 6Z" fill="white"/>
</g>
<defs>
<clipPath id="clip0_bulb">
<rect width="24" height="24" fill="white"/>
</clipPath>
</defs>
</svg>

