<svg width="24" height="24" viewBox="0 0 24 24" fill="none" xmlns="http://www.w3.org/2000/svg">
<g clip-path="url(#clip0_452_1693)">
<path d="M18.7127 11.9998H13.9997C13.4692 11.9998 12.9605 11.7891 12.5855 11.414C12.2104 11.0389 11.9997 10.5302 11.9997 9.9998V5.2738C12.001 4.81378 11.8966 4.35961 11.6944 3.94641C11.4922 3.5332 11.1977 3.17202 10.8337 2.8908C10.4887 2.61761 10.0856 2.42738 9.65537 2.33478C9.22519 2.24219 8.77947 2.24973 8.35266 2.3568C5.92832 2.95861 3.78199 4.36986 2.26864 6.35716C0.755278 8.34446 -0.0344602 10.7888 0.0300253 13.2859C0.0945107 15.783 1.00936 18.1832 2.62327 20.0898C4.23718 21.9963 6.45349 23.2949 8.90566 23.7708C11.6628 24.2985 14.5173 23.7522 16.8847 22.2437C19.2521 20.7352 20.9532 18.3787 21.6397 15.6568C21.7471 15.2294 21.755 14.7831 21.6626 14.3522C21.5701 13.9214 21.3799 13.5175 21.1067 13.1718C20.8221 12.8083 20.4589 12.5139 20.0442 12.3109C19.6296 12.1079 19.1743 12.0016 18.7127 11.9998ZM19.7007 15.1678C19.3178 16.7097 18.5322 18.1222 17.4243 19.2608C16.3164 20.3995 14.926 21.2234 13.3952 21.6484C11.8644 22.0733 10.2482 22.0841 8.71187 21.6795C7.17556 21.2749 5.77428 20.4695 4.65137 19.3456C3.52846 18.2218 2.72421 16.8198 2.32089 15.2832C1.91756 13.7466 1.92963 12.1304 2.35586 10.5999C2.7821 9.06946 3.60719 7.67969 4.74677 6.57274C5.88634 5.4658 7.29948 4.68141 8.84166 4.2998C8.9736 4.26684 9.11142 4.26523 9.24409 4.29509C9.37675 4.32496 9.50058 4.38548 9.60566 4.4718C9.72976 4.56641 9.83039 4.68833 9.89976 4.8281C9.96912 4.96788 10.0054 5.12176 10.0057 5.2778V9.9998C10.0057 11.0607 10.4271 12.0781 11.1772 12.8282C11.9274 13.5784 12.9448 13.9998 14.0057 13.9998H18.7177C18.8751 14.0004 19.0303 14.0368 19.1716 14.1061C19.313 14.1753 19.4367 14.2758 19.5337 14.3998C19.6187 14.5063 19.6779 14.6311 19.7067 14.7643C19.7355 14.8976 19.7331 15.0357 19.6997 15.1678H19.7007Z" fill="white"/>
<path d="M23.651 7.4459C23.1906 5.75337 22.2963 4.2104 21.0564 2.96967C19.8166 1.72895 18.2742 0.833486 16.582 0.371895C16.4046 0.324204 16.2217 0.299998 16.038 0.299895C15.7738 0.297385 15.5117 0.347263 15.2668 0.446648C15.022 0.546033 14.7993 0.692954 14.6115 0.878921C14.4238 1.06489 14.2748 1.28622 14.1731 1.53011C14.0714 1.77401 14.019 2.03564 14.019 2.29989V6.9999C14.019 7.79554 14.3351 8.55861 14.8977 9.12122C15.4603 9.68382 16.2234 9.9999 17.019 9.9999H21.738C22.0467 9.99693 22.3505 9.92283 22.6259 9.78337C22.9013 9.64391 23.1408 9.44284 23.3259 9.19578C23.5109 8.94872 23.6365 8.66232 23.6929 8.35883C23.7493 8.05535 23.735 7.74294 23.651 7.4459ZM21.153 7.9999H17.015C16.7498 7.9999 16.4955 7.89454 16.3079 7.707C16.1204 7.51947 16.015 7.26511 16.015 6.9999L16.007 2.30689C16.0144 2.3016 16.023 2.29848 16.032 2.2979H16.058C17.4201 2.66898 18.6611 3.39081 19.6571 4.39134C20.653 5.39187 21.3692 6.63611 21.734 7.9999H21.153Z" fill="white"/>
</g>
<defs>
<clipPath id="clip0_452_1693">
<rect width="24" height="24" fill="white"/>
</clipPath>
</defs>
</svg>
