<svg width="24" height="24" viewBox="0 0 24 24" fill="none" xmlns="http://www.w3.org/2000/svg">
<g clip-path="url(#clip0_chat)">
<path d="M12 2C6.477 2 2 6.145 2 11.25C2 13.47 2.865 15.51 4.293 17.098C4.025 18.133 3.458 19.558 2.293 20.723C2.105 20.911 2.01 21.176 2.035 21.445C2.06 21.714 2.203 21.957 2.426 22.105C2.649 22.253 2.926 22.29 3.176 22.207C5.176 21.507 6.676 20.707 7.676 20.207C9.026 20.707 10.476 21.007 12.001 21.007C17.524 21.007 22.001 16.862 22.001 11.757C22.001 6.145 17.523 2 12 2ZM12 19C10.676 19 9.376 18.75 8.176 18.25C8.026 18.19 7.863 18.167 7.701 18.183C7.539 18.199 7.383 18.253 7.251 18.34C6.651 18.74 5.651 19.34 4.251 19.94C4.751 19.14 5.151 18.24 5.401 17.44C5.476 17.19 5.451 16.92 5.326 16.69C5.201 16.46 4.989 16.287 4.739 16.207C3.089 15.607 4.001 13.507 4.001 11.257C4.001 7.257 7.589 4.007 12.001 4.007C16.413 4.007 20.001 7.257 20.001 11.257C20.001 15.757 16.411 19 12 19Z" fill="white"/>
</g>
<defs>
<clipPath id="clip0_chat">
<rect width="24" height="24" fill="white"/>
</clipPath>
</defs>
</svg>

