<svg width="24" height="24" viewBox="0 0 24 24" fill="none" xmlns="http://www.w3.org/2000/svg">
<path d="M21.3385 5.81525H19.3306L14.4042 10.7395C14.5738 11.1719 14.5894 11.6496 14.4483 12.0922C14.3072 12.5348 14.0181 12.9153 13.6294 13.1697C13.2408 13.4242 12.7764 13.537 12.3143 13.4893C11.8522 13.4416 11.4207 13.2363 11.0922 12.9078C10.7637 12.5793 10.5584 12.1478 10.5107 11.6857C10.463 11.2236 10.5758 10.7592 10.8303 10.3706C11.0847 9.98193 11.4652 9.69275 11.9078 9.55166C12.3504 9.41057 12.8281 9.42617 13.2605 9.59585L18.1858 4.6705V2.66259C18.1859 2.39391 18.2926 2.13625 18.4825 1.94618L20.3491 0.079616C20.3836 0.0448504 20.427 0.020153 20.4745 0.00817714C20.5221 -0.00379874 20.5719 -0.00260056 20.6188 0.0116429C20.7149 0.0396953 20.7861 0.119537 20.8055 0.21772L21.3018 2.70036L23.7834 3.19667C23.8805 3.21609 23.9603 3.2873 23.9884 3.38332C24.0025 3.42997 24.0038 3.47958 23.992 3.52689C23.9802 3.57419 23.9559 3.61742 23.9215 3.65198L22.0538 5.51854C21.864 5.70817 21.6068 5.81486 21.3385 5.81525Z" fill="white"/>
<path d="M1.65517 12C1.65517 14.7436 2.74507 17.3749 4.6851 19.3149C6.62513 21.2549 9.25638 22.3448 12 22.3448C13.3585 22.3448 14.7037 22.0773 15.9588 21.5574C17.2139 21.0375 18.3543 20.2755 19.3149 19.3149C20.2755 18.3543 21.0375 17.2139 21.5574 15.9588C22.0773 14.7037 22.3448 13.3585 22.3448 12C22.3448 11.0091 22.2058 10.0513 21.9465 9.14538C21.8949 8.93737 21.9261 8.71748 22.0334 8.53197C22.1407 8.34647 22.3158 8.20981 22.5218 8.15077C22.7278 8.09173 22.9486 8.1149 23.1379 8.21541C23.3272 8.31592 23.4701 8.48593 23.5366 8.68966C23.8389 9.74235 24 10.8524 24 12C24 18.6273 18.6273 24 12 24C5.37269 24 0 18.6273 0 12C0 5.37269 5.37269 5.82826e-06 12 5.82826e-06C13.12 -0.00109762 14.2334 0.154489 15.3103 0.462351C15.4154 0.491806 15.5135 0.541727 15.5992 0.609242C15.6848 0.676756 15.7563 0.760535 15.8094 0.855759C15.8626 0.950984 15.8964 1.05578 15.9089 1.16412C15.9215 1.27245 15.9125 1.3822 15.8824 1.48705C15.8524 1.59189 15.8019 1.68977 15.734 1.77505C15.666 1.86033 15.5818 1.93133 15.4863 1.98397C15.3908 2.03661 15.2858 2.06986 15.1774 2.08179C15.069 2.09373 14.9593 2.08412 14.8546 2.05352C13.9263 1.78854 12.9654 1.65446 12 1.65518C9.25638 1.65518 6.62513 2.74508 4.6851 4.68511C2.74507 6.62514 1.65517 9.25639 1.65517 12Z" fill="white"/>
<path d="M6.26343 11.998C6.26671 12.777 6.42879 13.5472 6.73977 14.2615C7.05075 14.9758 7.5041 15.6193 8.07214 16.1526C8.64018 16.6859 9.311 17.0979 10.0436 17.3634C10.7763 17.6289 11.5553 17.7424 12.3333 17.6968C13.1113 17.6513 13.8718 17.4477 14.5684 17.0986C15.265 16.7494 15.8832 16.262 16.3851 15.666C16.887 15.0701 17.2621 14.3781 17.4875 13.6324C17.713 12.8867 17.784 12.1028 17.6963 11.3288C17.6716 11.172 17.6898 11.0114 17.7489 10.8642C17.8081 10.7169 17.906 10.5883 18.0322 10.4921C18.1585 10.3959 18.3084 10.3356 18.4662 10.3177C18.6239 10.2997 18.7836 10.3248 18.9282 10.3902C19.2236 10.5219 19.4224 10.803 19.4483 11.1253C19.631 12.6723 19.327 14.2377 18.5786 15.604C17.8303 16.9704 16.6747 18.0697 15.2725 18.7492C13.8704 19.4287 12.2912 19.6547 10.7547 19.3956C9.21814 19.1366 7.80048 18.4055 6.69877 17.3038C5.59736 16.2034 4.86579 14.7876 4.60553 13.2529C4.34527 11.7181 4.56921 10.1404 5.2463 8.73858C5.92338 7.33677 7.02006 6.18032 8.38421 5.42964C9.74837 4.67895 11.3124 4.37123 12.8594 4.54915C12.9763 4.56 13.0899 4.59408 13.1935 4.64938C13.2971 4.70469 13.3887 4.78012 13.4627 4.87124C13.5368 4.96236 13.5919 5.06735 13.6249 5.18004C13.6578 5.29274 13.6679 5.41087 13.6546 5.52753C13.6413 5.64418 13.6048 5.75701 13.5473 5.85938C13.4898 5.96176 13.4125 6.05164 13.3198 6.12374C13.2271 6.19584 13.1209 6.24872 13.0075 6.27928C12.8941 6.30984 12.7758 6.31745 12.6594 6.30169C11.8558 6.20881 11.0416 6.28687 10.2704 6.53074C9.49911 6.7746 8.78814 7.17876 8.18415 7.71669C7.58016 8.25461 7.09679 8.91415 6.76576 9.652C6.43474 10.3899 6.26355 11.1894 6.26343 11.998Z" fill="white"/>
</svg>
