<svg width="32" height="32" viewBox="0 0 32 32" fill="none" xmlns="http://www.w3.org/2000/svg">
<path d="M10.6267 13.1817H21.3734M10.6267 18.819H18.2907M16.0001 28.3337C18.6792 28.3331 21.2854 27.4601 23.4243 25.8468C25.5633 24.2334 27.1187 21.9674 27.8554 19.3915C28.592 16.8156 28.4699 14.0699 27.5074 11.5695C26.5449 9.06921 24.7943 6.95031 22.5206 5.53328C20.2468 4.11624 17.5734 3.47815 14.9048 3.7155C12.2362 3.95285 9.71737 5.05273 7.72937 6.8488C5.74137 8.64487 4.39229 11.0395 3.88616 13.6704C3.38002 16.3013 3.74435 19.0255 4.92406 21.431C5.06806 21.7243 5.11606 22.055 5.04273 22.3723L3.95473 27.087C3.92406 27.2193 3.92758 27.3573 3.96495 27.4878C4.00233 27.6184 4.07234 27.7373 4.16838 27.8334C4.26442 27.9294 4.38333 27.9994 4.5139 28.0368C4.64448 28.0742 4.78242 28.0777 4.91473 28.047L9.62806 26.9577C9.94629 26.888 10.2788 26.9304 10.5694 27.0777C12.2593 27.9075 14.1174 28.3373 16.0001 28.3337Z" stroke="white" stroke-width="2" stroke-linecap="round" stroke-linejoin="round"/>
</svg>
