<svg width="32" height="32" viewBox="0 0 32 32" fill="none" xmlns="http://www.w3.org/2000/svg">
<path d="M11.9787 27.55H7.59208C5.97608 27.55 4.66675 26.2407 4.66675 24.6247V16.0194C4.66773 15.3925 4.80267 14.773 5.06251 14.2025C5.32236 13.632 5.70112 13.1236 6.17341 12.7114L14.0801 5.8247C14.6125 5.36154 15.2944 5.10645 16.0001 5.10645C16.7058 5.10645 17.3877 5.36154 17.9201 5.8247L25.8267 12.7127C26.2989 13.1248 26.6775 13.633 26.9374 14.2032C27.1972 14.7735 27.3322 15.3927 27.3334 16.0194V24.6247C27.3334 25.4003 27.0254 26.1442 26.4771 26.6928C25.9288 27.2413 25.185 27.5497 24.4094 27.55H20.3867V18.7754C20.3867 17.5647 19.4054 16.582 18.1934 16.582H14.1734C12.9614 16.582 11.9801 17.5647 11.9801 18.7754L11.9787 27.55ZM11.9787 27.55H20.3881" stroke="white" stroke-width="2" stroke-linejoin="round"/>
</svg>
