<svg width="32" height="32" viewBox="0 0 32 32" fill="none" xmlns="http://www.w3.org/2000/svg">
<path d="M12.0934 23.6491H19.9067M20.0174 22.8051C20.1854 21.5278 20.9987 20.4531 21.9694 19.6051C23.3647 18.3894 24.3556 16.7767 24.8096 14.9826C25.2637 13.1886 25.1591 11.2986 24.5101 9.56555C23.861 7.83248 22.6983 6.33888 21.1774 5.28445C19.6565 4.23002 17.85 3.66504 15.9994 3.66504C14.1487 3.66504 12.3422 4.23002 10.8214 5.28445C9.30049 6.33888 8.13778 7.83248 7.4887 9.56555C6.83962 11.2986 6.7351 13.1886 7.18912 14.9826C7.64314 16.7767 8.63406 18.3894 10.0294 19.6051C11.0014 20.4531 11.816 21.5278 11.9827 22.8051L12.0947 23.6491L12.4054 26.0144C12.4898 26.6559 12.8046 27.2448 13.291 27.6714C13.7774 28.098 14.4024 28.3331 15.0494 28.3331H16.9507C17.5977 28.3331 18.2226 28.098 18.7091 27.6714C19.1955 27.2448 19.5103 26.6559 19.5947 26.0144L19.9054 23.6491L20.0174 22.8051Z" stroke="white" stroke-width="2" stroke-linecap="round" stroke-linejoin="round"/>
</svg>
