<svg width="32" height="32" viewBox="0 0 32 32" fill="none" xmlns="http://www.w3.org/2000/svg">
<path d="M4.33325 12.3337H27.6666M9.81459 6.33366V3.66699M22.1479 6.33366V3.66699M22.9999 6.33366H8.99992C7.76224 6.33366 6.57526 6.82532 5.70009 7.70049C4.82492 8.57566 4.33325 9.76265 4.33325 11.0003V23.667C4.33325 24.9047 4.82492 26.0917 5.70009 26.9668C6.57526 27.842 7.76224 28.3337 8.99992 28.3337H22.9999C24.2376 28.3337 25.4246 27.842 26.2998 26.9668C27.1749 26.0917 27.6666 24.9047 27.6666 23.667V11.0003C27.6666 9.76265 27.1749 8.57566 26.2998 7.70049C25.4246 6.82532 24.2376 6.33366 22.9999 6.33366Z" stroke="white" stroke-width="2" stroke-linecap="round" stroke-linejoin="round"/>
</svg>
